<svg width="44" height="47" viewBox="0 0 44 47" fill="none" xmlns="http://www.w3.org/2000/svg">
<g clip-path="url(#clip0_49_142)">
<path d="M43.7815 38.5597C43.7815 42.6986 40.5223 46.085 36.5389 46.085H7.56873C3.58532 46.085 0.326172 42.6986 0.326172 38.5597V8.45822C0.326172 4.31927 3.58532 0.932861 7.56873 0.932861H36.5389C40.5223 0.932861 43.7815 4.31927 43.7815 8.45822V38.5597Z" fill="#563D7C"/>
<path d="M12.1342 10.7454H24.4536C26.7258 10.7454 28.5506 11.2839 29.921 12.3685C31.2914 13.453 31.9802 15.0835 31.9802 17.2747C31.9802 18.6027 31.6678 19.7389 31.0429 20.6833C30.4181 21.6276 29.5234 22.3654 28.3589 22.8818V22.9556C29.921 23.3024 31.1068 24.0697 31.9092 25.2575C32.7115 26.4527 33.1163 27.943 33.1163 29.7432C33.1163 30.7761 32.9388 31.7426 32.5837 32.6353C32.2287 33.5354 31.6749 34.3101 30.9151 34.9593C30.1553 35.6086 29.1897 36.125 28.0039 36.5087C26.8181 36.8923 25.4122 37.0841 23.779 37.0841H12.1342V10.7454ZM16.572 21.7752H23.8146C24.8796 21.7752 25.7672 21.4653 26.4773 20.8308C27.1873 20.1963 27.5423 19.2962 27.5423 18.1158C27.5423 16.7878 27.2228 15.8508 26.5838 15.3122C25.9447 14.7736 25.0216 14.5007 23.8146 14.5007H16.572V21.7752ZM16.572 33.3214H24.4181C25.7672 33.3214 26.8181 32.9599 27.5565 32.2295C28.3021 31.5065 28.6784 30.4736 28.6784 29.1456C28.6784 27.8397 28.3092 26.8437 27.5565 26.1355C26.8039 25.4272 25.7672 25.0878 24.4181 25.0878H16.572V33.3214Z" fill="white"/>
</g>
<defs>
<clipPath id="clip0_49_142">
<rect width="43.4553" height="45.1522" fill="white" transform="translate(0.326172 0.932861)"/>
</clipPath>
</defs>
</svg>
