<svg width="32" height="46" viewBox="0 0 32 46" fill="none" xmlns="http://www.w3.org/2000/svg">
<g clip-path="url(#clip0_49_150)">
<path d="M8.47816 45.5366C12.8073 45.5366 16.3208 42.1652 16.3208 38.0112V30.4858H8.47816C4.14901 30.4858 0.635498 33.8572 0.635498 38.0112C0.635498 42.1652 4.14901 45.5366 8.47816 45.5366Z" fill="#0ACF83"/>
<path d="M0.635498 22.9602C0.635498 18.8062 4.14901 15.4348 8.47816 15.4348H16.3208V30.4855H8.47816C4.14901 30.4855 0.635498 27.1142 0.635498 22.9602Z" fill="#A259FF"/>
<path d="M0.634766 7.90939C0.634766 3.75539 4.14828 0.384033 8.47743 0.384033H16.3201V15.4347H8.47743C4.14828 15.4347 0.634766 12.0634 0.634766 7.90939Z" fill="#F24E1E"/>
<path d="M16.3213 0.384277H24.164C28.4931 0.384277 32.0066 3.75564 32.0066 7.90964C32.0066 12.0636 28.4931 15.435 24.164 15.435H16.3213V0.384277Z" fill="#FF7262"/>
<path d="M32.0066 22.9602C32.0066 27.1142 28.4931 30.4855 24.164 30.4855C19.8348 30.4855 16.3213 27.1142 16.3213 22.9602C16.3213 18.8062 19.8348 15.4348 24.164 15.4348C28.4931 15.4348 32.0066 18.8062 32.0066 22.9602Z" fill="#1ABCFE"/>
</g>
<defs>
<clipPath id="clip0_49_150">
<rect width="31.3769" height="45.1522" fill="white" transform="translate(0.632812 0.384277)"/>
</clipPath>
</defs>
</svg>
