<svg width="44" height="46" viewBox="0 0 44 46" fill="none" xmlns="http://www.w3.org/2000/svg">
<path d="M0.505371 0.276855H43.9607V45.429H0.505371V0.276855Z" fill="#F7DF1E"/>
<path d="M11.9313 38.0091L15.2568 35.918C15.8984 37.0999 16.482 38.0999 17.8819 38.0999C19.2238 38.0999 20.0698 37.5545 20.0698 35.4331V21.0059H24.1535V35.493C24.1535 39.8878 21.6742 41.8882 18.057 41.8882C14.7902 41.8882 12.8938 40.1302 11.9313 38.0087" fill="white"/>
<path d="M26.3716 37.5543L29.6967 35.5539C30.572 37.0392 31.7096 38.1303 33.7222 38.1303C35.4143 38.1303 36.4933 37.2512 36.4933 36.0389C36.4933 34.584 35.3849 34.0687 33.518 33.2204L32.4973 32.7654C29.551 31.4624 27.5965 29.8257 27.5965 26.3704C27.5965 23.188 29.9301 20.7632 33.5765 20.7632C36.1726 20.7632 38.0395 21.7029 39.3811 24.1579L36.2016 26.2794C35.5015 24.9762 34.7433 24.4611 33.5765 24.4611C32.3806 24.4611 31.6221 25.2491 31.6221 26.2794C31.6221 27.5524 32.3806 28.0678 34.1306 28.8559L35.1514 29.3105C38.6227 30.8563 40.5771 32.4322 40.5771 35.9782C40.5771 39.7974 37.6894 41.8885 33.8098 41.8885C30.0178 41.8885 27.5674 40.0095 26.3717 37.5543" fill="white"/>
</svg>
