<svg width="20" height="45" viewBox="0 0 20 45" fill="none" xmlns="http://www.w3.org/2000/svg">
<path d="M10.3608 33.5352C10.1585 36.2151 10.0127 37.7745 9.4978 39.3028C9.4978 39.3028 9.83725 41.8528 10.0731 44.5549H10.9141C11.1148 42.6518 11.4212 40.7626 11.8317 38.897C10.7424 38.3363 10.402 35.8859 10.3608 33.5352Z" fill="#B8C4C2"/>
<path d="M19.2846 18.089C17.0791 7.87368 12.4765 5.15348 11.3085 3.23061C10.6737 2.18461 10.0265 0.594971 10.0265 0.594971C9.96321 1.50103 9.85102 2.07487 9.11459 2.76348C7.63982 4.14372 1.37252 9.5056 0.846093 21.1133C0.355142 31.9357 8.42131 38.6104 9.49335 39.3C10.3122 39.7228 11.3152 39.308 11.7947 38.9204C15.682 36.1177 21 28.6447 19.2798 18.089" fill="#10AA50"/>
<path d="M11.8308 38.899C10.73 38.3654 10.4117 35.8657 10.3628 33.5351C10.634 29.6927 10.7124 25.8379 10.5977 21.9868C10.5402 19.9663 10.6265 3.26955 10.124 0.825195C10.3273 1.3034 10.8183 2.42691 11.3092 3.22928C12.4819 5.15316 17.0808 7.87336 19.2843 18.0897C21.0016 28.6182 15.7153 36.0781 11.8308 38.899Z" fill="#12924F"/>
</svg>
