<svg width="48" height="46" viewBox="0 0 48 46" fill="none" xmlns="http://www.w3.org/2000/svg">
<path d="M43.7904 34.922C41.2605 34.8596 39.2997 35.11 37.6552 35.7981C37.1808 35.9858 36.4218 35.986 36.3585 36.5802C36.6116 36.8307 36.6432 37.2373 36.8646 37.5814C37.2443 38.2069 37.9082 39.0518 38.5091 39.4898C39.1731 39.9903 39.8374 40.4907 40.5329 40.9288C41.7664 41.6797 43.1579 42.1176 44.3596 42.8685C45.0556 43.3061 45.751 43.8696 46.4467 44.3389C46.7947 44.5889 47.0159 44.9957 47.4588 45.1522V45.0583C47.2374 44.7767 47.1741 44.3701 46.9529 44.0572C46.6368 43.7444 46.3204 43.4627 46.0041 43.1499C45.0869 41.9299 43.9485 40.8662 42.7151 39.9903C41.7033 39.302 39.4894 38.3635 39.0783 37.2059C39.0783 37.2059 39.0466 37.1747 39.015 37.1435C39.7108 37.0809 40.5329 36.8307 41.1972 36.6428C42.2725 36.3612 43.2528 36.4238 44.3596 36.1424C44.8655 36.0172 45.3716 35.8607 45.8776 35.7043V35.4229C45.3086 34.8596 44.8973 34.1089 44.2963 33.577C42.6836 32.2003 40.9125 30.8553 39.0783 29.7291C38.0978 29.1034 36.8328 28.6966 35.7893 28.1649C35.41 27.9769 34.7773 27.8833 34.5561 27.5704C33.9867 26.8821 33.6704 25.975 33.2593 25.1615C32.3425 23.4407 31.4567 21.5326 30.6661 19.7182C30.0971 18.498 29.7491 17.2779 29.0533 16.1517C25.7961 10.8334 22.2541 7.6112 16.8147 4.45138C15.6445 3.7945 14.2532 3.51286 12.7668 3.16881C11.9764 3.13741 11.1855 3.075 10.3949 3.0436C9.88902 2.82457 9.38291 2.23029 8.94009 1.94865C7.13786 0.822308 2.48883 -1.61762 1.16057 1.60461C0.306667 3.63808 2.42554 5.64014 3.15286 6.67267C3.69071 7.39217 4.38629 8.20547 4.76582 9.01899C4.98723 9.55046 5.05032 10.1139 5.27173 10.677C5.77784 12.0532 6.25201 13.5864 6.91624 14.8692C7.26423 15.5261 7.64356 16.2143 8.08638 16.8086C8.33934 17.1527 8.78196 17.3093 8.87699 17.8724C8.43437 18.498 8.40263 19.4366 8.14947 20.2187C7.01107 23.7537 7.45389 28.1335 9.06666 30.7301C9.57257 31.512 10.7745 33.233 12.3872 32.5759C13.8103 32.0128 13.4941 30.2296 13.9052 28.6654C14.0002 28.2897 13.9369 28.0397 14.1266 27.7895C14.1267 27.8207 14.1266 27.8521 14.1266 27.8521C14.5694 28.728 15.012 29.5727 15.4231 30.4486C16.4036 31.9814 18.1112 33.577 19.5343 34.6408C20.2935 35.2036 20.8943 36.1736 21.843 36.5178V36.4238H21.7797C21.5898 36.1422 21.3053 36.0171 21.0524 35.7981C20.4832 35.235 19.8505 34.5468 19.4079 33.9211C18.0798 32.169 16.9095 30.2296 15.8659 28.2273C15.36 27.2576 14.9172 26.1939 14.5061 25.2241C14.3162 24.8485 14.3162 24.2856 14 24.098C13.5256 24.7861 12.8301 25.3806 12.4821 26.2253C11.8815 27.5704 11.818 29.2285 11.5966 30.9491C11.4702 30.9805 11.5333 30.9491 11.47 31.0117C10.4582 30.7613 10.1102 29.7291 9.73069 28.853C8.78196 26.6319 8.62384 23.0654 9.44619 20.5003C9.6676 19.8432 10.6163 17.7785 10.2368 17.1529C10.0471 16.5584 9.41444 16.2143 9.06666 15.7451C8.65558 15.1506 8.21276 14.3999 7.92826 13.7428C7.16919 11.991 6.78966 10.0513 5.96751 8.29929C5.58798 7.48579 4.92394 6.64127 4.38629 5.89057C3.78555 5.04586 3.12131 4.45138 2.64694 3.45025C2.48902 3.1062 2.26741 2.54313 2.52036 2.16768C2.58365 1.91745 2.71003 1.82363 2.96318 1.76102C3.37426 1.41678 4.5444 1.85484 4.95547 2.04246C6.12562 2.51152 7.10589 2.94978 8.08637 3.60667C8.52899 3.91951 9.00336 4.51399 9.57256 4.67041H10.2368C11.2488 4.88924 12.3872 4.73302 13.3359 5.01446C15.0122 5.54613 16.5299 6.32843 17.8899 7.17314C22.0329 9.76968 25.4481 13.4614 27.7568 17.8724C28.1363 18.5917 28.2943 19.2489 28.6423 19.9996C29.3065 21.5326 30.1286 23.0968 30.7927 24.5984C31.4567 26.0686 32.0892 27.5704 33.0379 28.7906C33.5125 29.4473 35.4098 29.7915 36.2636 30.1358C36.8961 30.4172 37.8766 30.6677 38.4458 31.0117C39.5209 31.6684 40.5962 32.4195 41.6082 33.139C42.1144 33.5142 43.6954 34.2965 43.7904 34.922L43.7904 34.922Z" fill="#00546B"/>
</svg>
