<svg width="60" height="60" viewBox="0 0 60 60" fill="none" xmlns="http://www.w3.org/2000/svg">
<path d="M30 54.6675C43.6235 54.6675 54.6675 43.6235 54.6675 30C54.6675 16.3765 43.6235 5.33252 30 5.33252C16.3765 5.33252 5.33252 16.3765 5.33252 30C5.33252 43.6235 16.3765 54.6675 30 54.6675Z" fill="url(#paint0_linear_124_101)"/>
<path d="M23.7687 20.0337H19.99V40.0287H23.7687V20.0337Z" fill="white"/>
<path d="M39.985 19.9463H36.2937V38.1838H39.985V19.9463Z" fill="url(#paint1_linear_124_101)"/>
<path d="M45.9762 47.6174L42.71 48.8624L19.99 20.0337H24.385L45.9762 47.6174Z" fill="url(#paint2_linear_124_101)"/>
<defs>
<linearGradient id="paint0_linear_124_101" x1="30" y1="54.6675" x2="30" y2="5.33252" gradientUnits="userSpaceOnUse">
<stop stop-color="#0A070A"/>
<stop offset="0.465" stop-color="#2B2B2B"/>
<stop offset="1" stop-color="#4B4B4B"/>
</linearGradient>
<linearGradient id="paint1_linear_124_101" x1="38.14" y1="41.2763" x2="38.14" y2="23.0388" gradientUnits="userSpaceOnUse">
<stop offset="0.377" stop-color="white" stop-opacity="0"/>
<stop offset="0.666" stop-color="white" stop-opacity="0.3"/>
<stop offset="0.988" stop-color="white"/>
</linearGradient>
<linearGradient id="paint2_linear_124_101" x1="27.6275" y1="26.8037" x2="45.8262" y2="50.6612" gradientUnits="userSpaceOnUse">
<stop offset="0.296" stop-color="white"/>
<stop offset="0.521" stop-color="white" stop-opacity="0.5"/>
<stop offset="0.838" stop-color="white" stop-opacity="0"/>
</linearGradient>
</defs>
</svg>
