<svg width="40" height="46" viewBox="0 0 40 46" fill="none" xmlns="http://www.w3.org/2000/svg">
<path d="M19.9677 45.0684C19.3684 45.0684 18.8091 44.9028 18.2897 44.6129L12.9759 41.342C12.1768 40.8866 12.5764 40.7209 12.8161 40.6381C13.8948 40.2655 14.0946 40.1827 15.2133 39.5202C15.3331 39.4374 15.4929 39.4788 15.6128 39.5616L19.688 42.0873C19.8478 42.1701 20.0476 42.1701 20.1675 42.0873L36.1088 32.5229C36.2686 32.4401 36.3485 32.2745 36.3485 32.0675V12.9802C36.3485 12.7732 36.2686 12.6076 36.1088 12.5247L20.1675 3.0018C20.0077 2.91899 19.8079 2.91899 19.688 3.0018L3.74669 12.5247C3.58687 12.6076 3.50697 12.8146 3.50697 12.9802V32.0675C3.50697 32.2331 3.58687 32.4401 3.74669 32.5229L8.10159 35.1314C10.4588 36.3735 11.9371 34.9244 11.9371 33.4752V14.6364C11.9371 14.3879 12.1369 14.1395 12.4165 14.1395H14.4542C14.6939 14.1395 14.9336 14.3465 14.9336 14.6364V33.4752C14.9336 36.7461 13.2156 38.6507 10.2191 38.6507C9.30019 38.6507 8.58103 38.6507 6.54341 37.6156L2.34832 35.1314C1.30954 34.5103 0.670288 33.351 0.670288 32.1089V13.0216C0.670288 11.7795 1.30954 10.6202 2.34832 9.99909L18.2897 0.434743C19.2885 -0.144914 20.6469 -0.144914 21.6457 0.434743L37.5871 9.99909C38.6259 10.6202 39.2651 11.7795 39.2651 13.0216V32.1089C39.2651 33.351 38.6259 34.5103 37.5871 35.1314L21.6457 44.6957C21.1263 44.9442 20.527 45.0684 19.9677 45.0684ZM24.8819 31.9433C17.8901 31.9433 16.4518 28.6309 16.4518 25.8155C16.4518 25.567 16.6516 25.3186 16.9313 25.3186H19.0088C19.2485 25.3186 19.4483 25.4842 19.4483 25.7327C19.7679 27.9271 20.6869 29.0036 24.9219 29.0036C28.278 29.0036 29.7163 28.2169 29.7163 26.3537C29.7163 25.2772 29.3168 24.4905 24.0829 23.9523C19.728 23.4968 17.0112 22.5031 17.0112 18.901C17.0112 15.5472 19.728 13.5598 24.2826 13.5598C29.3967 13.5598 31.9137 15.3816 32.2333 19.3564C32.2333 19.4806 32.1934 19.6048 32.1135 19.7291C32.0336 19.8119 31.9137 19.8947 31.7939 19.8947H29.7163C29.5165 19.8947 29.3168 19.7291 29.2768 19.522C28.7974 17.2448 27.5588 16.4995 24.2826 16.4995C20.6069 16.4995 20.1675 17.8245 20.1675 18.8182C20.1675 20.0189 20.6869 20.3915 25.6411 21.054C30.5553 21.7165 32.8726 22.6688 32.8726 26.2295C32.8326 29.8731 29.956 31.9433 24.8819 31.9433Z" fill="#539E43"/>
</svg>
