<svg width="55" height="55" viewBox="0 0 55 55" fill="none" xmlns="http://www.w3.org/2000/svg">
<path d="M54.6671 42.1683L31.8059 1.67264C30.6282 -0.413818 27.2095 -0.585836 25.7494 1.36839L0.399205 35.3133C-0.147633 36.0447 -0.131105 36.982 0.43915 37.7005L13.2093 53.7766C14.0013 54.7736 15.46 55.2241 16.8223 54.8918L52.5555 46.1645C54.5624 45.6742 55.5693 43.768 54.6671 42.1683ZM49.6174 43.624L19.5647 50.7727C18.8691 50.9389 18.2148 50.4158 18.3664 49.8155L29.0208 7.57509C29.2122 6.81446 30.4299 6.69159 30.8266 7.39137L50.4756 42.0536C50.8172 42.6902 50.4108 43.4356 49.6174 43.624Z" fill="#339AF0"/>
</svg>
