<svg width="49" height="46" viewBox="0 0 49 46" fill="none" xmlns="http://www.w3.org/2000/svg">
<path d="M0.251953 23.3059C0.251953 27.078 3.77463 30.5993 9.32841 32.5841C8.21937 38.4221 9.12965 43.1274 12.1701 44.9609C15.2953 46.8453 19.9512 45.5409 24.3702 41.5019C28.6778 45.3778 33.0313 46.9032 36.0689 45.0645C39.1911 43.1746 40.1408 38.1501 39.0011 32.13C44.7857 30.1302 48.0214 27.1276 48.0214 23.3059C48.0214 19.6213 44.4922 16.4337 39.0133 14.4615C40.2402 8.19258 39.2006 3.60144 36.0343 1.69225C32.9817 -0.148322 28.5776 1.45593 24.2067 5.43331C19.6595 1.21163 15.2989 -0.0772989 12.1357 1.83745C9.08603 3.68326 8.21578 8.47409 9.32841 14.4201C3.96216 16.3764 0.251953 19.6361 0.251953 23.3059Z" fill="white"/>
<path d="M37.8522 16.4197C37.4121 16.2613 36.9561 16.1115 36.4866 15.9697C36.5637 15.6404 36.6346 15.3153 36.6975 14.9958C37.7313 9.74885 37.0554 5.52187 34.7473 4.13017C32.5342 2.79571 28.9148 4.18709 25.2593 7.51341C24.9078 7.83326 24.5553 8.17191 24.203 8.52682C23.9682 8.292 23.7338 8.06508 23.5 7.84803C19.669 4.29132 15.829 2.79247 13.5232 4.1882C11.3122 5.52653 10.6574 9.50029 11.5879 14.4729C11.6778 14.9532 11.7828 15.4436 11.9016 15.9423C11.3581 16.1036 10.8335 16.2756 10.3315 16.4586C5.84001 18.0959 2.97156 20.662 2.97156 23.3237C2.97156 26.0728 6.05084 28.8301 10.729 30.5021C11.0982 30.634 11.4813 30.7587 11.8761 30.8772C11.7479 31.4165 11.6365 31.9451 11.5429 32.4606C10.6556 37.3469 11.3486 41.2267 13.5537 42.5566C15.8314 43.93 19.654 42.5183 23.3763 39.1162C23.6705 38.8473 23.9658 38.5621 24.2616 38.2632C24.6449 38.6492 25.0277 39.0145 25.4085 39.3572C29.0139 42.6013 32.5749 43.9113 34.778 42.5777C37.0534 41.2004 37.7929 37.0325 36.8329 31.9615C36.7595 31.5742 36.6742 31.1786 36.5784 30.7759C36.8468 30.6929 37.1104 30.6072 37.3673 30.5182C42.2308 28.8333 45.3951 26.1095 45.3951 23.3237C45.3951 20.6524 42.4341 18.069 37.8522 16.4197Z" fill="#53C1DE"/>
<path d="M36.7975 28.7197C36.5655 28.8 36.3275 28.8776 36.085 28.9528C35.5481 27.1756 34.8234 25.2857 33.9367 23.3332C34.7829 21.4272 35.4795 19.5615 36.0014 17.7958C36.4353 17.9271 36.8566 18.0656 37.2624 18.2117C41.1882 19.6248 43.5829 21.7141 43.5829 23.324C43.5829 25.0388 40.9967 27.2648 36.7975 28.7197ZM35.0551 32.3297C35.4796 34.5721 35.5403 36.5994 35.2591 38.1842C35.0064 39.6083 34.4983 40.5577 33.87 40.938C32.533 41.7471 29.674 40.6954 26.5905 37.9209C26.237 37.6029 25.881 37.2633 25.5238 36.9039C26.7192 35.5369 27.9139 33.9477 29.0799 32.1828C31.1308 31.9925 33.0684 31.6814 34.8255 31.2567C34.912 31.6217 34.9889 31.9797 35.0551 32.3297ZM17.4348 40.7982C16.1286 41.2805 15.0883 41.2943 14.4594 40.9152C13.1212 40.1081 12.5649 36.993 13.3237 32.8142C13.4107 32.3357 13.5141 31.8441 13.6333 31.3416C15.3712 31.7434 17.2946 32.0326 19.3504 32.2068C20.5242 33.9338 21.7534 35.5213 22.9922 36.9112C22.7215 37.1844 22.4519 37.4445 22.1839 37.6896C20.5379 39.194 18.8885 40.2613 17.4348 40.7982ZM11.3153 28.7092C9.2467 27.9699 7.53836 27.0091 6.36737 25.9606C5.31517 25.0184 4.78394 24.083 4.78394 23.324C4.78394 21.7087 7.08702 19.6485 10.9282 18.2482C11.3942 18.0783 11.8821 17.9181 12.3884 17.7677C12.9193 19.5733 13.6157 21.4611 14.4561 23.3701C13.6048 25.3074 12.8985 27.2252 12.3625 29.052C12.0015 28.9435 11.6518 28.8293 11.3153 28.7092ZM13.3666 14.1092C12.5694 9.84879 13.0989 6.63492 14.4313 5.82845C15.8506 4.96931 18.989 6.19426 22.2968 9.2653C22.5082 9.46159 22.7205 9.66703 22.9333 9.87959C21.7007 11.2635 20.4828 12.839 19.3193 14.5558C17.3241 14.7492 15.4142 15.0598 13.6583 15.4758C13.5479 15.0114 13.4501 14.5552 13.3666 14.1092ZM31.6662 18.8339C31.2464 18.0757 30.8155 17.3355 30.3762 16.6155C31.7297 16.7944 33.0266 17.0319 34.2445 17.3226C33.8788 18.5478 33.4231 19.8289 32.8867 21.1422C32.5019 20.3783 32.0948 19.6081 31.6662 18.8339ZM24.2037 11.2339C25.0396 12.1808 25.8768 13.238 26.7002 14.3851C25.8704 14.3441 25.0304 14.3228 24.1835 14.3228C23.3445 14.3228 22.5107 14.3437 21.6861 14.3839C22.5103 13.2475 23.3547 12.1917 24.2037 11.2339ZM16.6934 18.847C16.274 19.6073 15.8746 20.3733 15.4958 21.1408C14.968 19.8321 14.5165 18.5451 14.1477 17.3025C15.3581 17.0193 16.6489 16.7877 17.9939 16.6122C17.5483 17.3388 17.1138 18.0845 16.6934 18.8468V18.847ZM18.0326 30.1709C16.643 30.0088 15.3328 29.7891 14.1227 29.5137C14.4974 28.2489 14.9589 26.9345 15.4978 25.5976C15.8776 26.3645 16.2786 27.1309 16.7005 27.8928H16.7006C17.1304 28.6691 17.5756 29.4294 18.0326 30.1709ZM24.2538 35.5477C23.3949 34.5786 22.5381 33.5067 21.7013 32.3537C22.5136 32.387 23.3418 32.404 24.1835 32.404C25.0482 32.404 25.903 32.3837 26.7443 32.3445C25.9182 33.5183 25.0841 34.5919 24.2538 35.5477ZM32.904 25.5295C33.471 26.8808 33.949 28.1884 34.3285 29.4316C33.0985 29.725 31.7704 29.9613 30.3712 30.1369C30.8116 29.4072 31.2463 28.6543 31.6735 27.8798C32.1056 27.0962 32.516 26.3115 32.904 25.5295ZM30.1036 26.9331C29.4405 28.1354 28.7596 29.2831 28.0685 30.3665C26.8096 30.4606 25.509 30.5091 24.1835 30.5091C22.8633 30.5091 21.5791 30.4662 20.3425 30.3823C19.6234 29.2847 18.9278 28.1336 18.2689 26.9434H18.269C17.6118 25.7566 17.007 24.5596 16.4589 23.3694C17.0068 22.1765 17.6101 20.9782 18.2635 19.7935L18.2634 19.7937C18.9185 18.6058 19.608 17.4603 20.3204 16.3696C21.5821 16.2698 22.8759 16.2178 24.1834 16.2178H24.1835C25.4969 16.2178 26.7923 16.2702 28.0536 16.3708C28.7551 17.4536 29.4399 18.5954 30.0977 19.7834C30.7629 20.9848 31.3739 22.1751 31.9265 23.3425C31.3756 24.53 30.7659 25.7322 30.1036 26.9331ZM33.8422 5.77207C35.2628 6.62868 35.8153 10.0834 34.9227 14.6135C34.8658 14.9026 34.8017 15.197 34.7321 15.4954C32.972 15.0708 31.0608 14.7548 29.0597 14.5585C27.894 12.8228 26.686 11.2448 25.4735 9.87872C25.7995 9.55081 26.1251 9.23814 26.4492 8.94307C29.5812 6.09311 32.5085 4.96789 33.8422 5.77207Z" fill="white"/>
<path d="M24.184 19.363C26.2762 19.363 27.9723 21.1364 27.9723 23.3241C27.9723 25.5117 26.2762 27.2851 24.184 27.2851C22.0919 27.2851 20.3958 25.5117 20.3958 23.3241C20.3958 21.1364 22.0919 19.363 24.184 19.363Z" fill="#53C1DE"/>
</svg>
