<svg width="58" height="46" viewBox="0 0 58 46" fill="none" xmlns="http://www.w3.org/2000/svg">
<path d="M49.2346 25.9107C47.2356 25.9226 45.5047 26.428 44.0529 27.1807C43.5168 26.0637 42.9808 25.0876 42.8916 24.3587C42.791 23.5121 42.6682 22.9946 42.791 21.9835C42.9138 20.9722 43.4722 19.5376 43.4722 19.4201C43.4609 19.3142 43.3492 18.7969 42.1991 18.7851C41.0489 18.7733 40.0549 19.0203 39.9432 19.3377C39.8315 19.6552 39.6082 20.3842 39.463 21.1368C39.262 22.2421 37.1625 26.1576 35.9675 28.2153C35.5767 27.4157 35.2417 26.7102 35.1745 26.1457C35.0741 25.2992 34.9512 24.7818 35.0741 23.7707C35.197 22.7593 35.7554 21.3249 35.7554 21.2073C35.7442 21.1015 35.6325 20.5841 34.4824 20.5724C33.332 20.5606 32.3382 20.8075 32.2265 21.125C32.1148 21.4425 31.992 22.195 31.7463 22.924C31.5117 23.6531 28.7198 30.1907 27.9939 31.8957C27.6254 32.7658 27.3016 33.4596 27.067 33.9299C26.8325 34.4002 27.0558 33.9652 27.0335 34.0122C26.8325 34.412 26.7208 34.6354 26.7208 34.6354V34.6473C26.5644 34.9412 26.3969 35.2233 26.3186 35.2233C26.2628 35.2233 26.1511 34.4355 26.341 33.3538C26.7542 31.0844 27.7593 27.5452 27.7482 27.4159C27.7482 27.3571 27.9379 26.7338 27.1004 26.4164C26.2851 26.0989 25.9949 26.6281 25.9278 26.6281C25.8608 26.6281 25.8049 26.8162 25.8049 26.8162C25.8049 26.8162 26.7095 22.8302 24.074 22.8302C22.4212 22.8302 20.143 24.7233 19.015 26.4518C18.3003 26.8633 16.7815 27.7333 15.1734 28.6624C14.5592 29.0151 13.9226 29.3914 13.3196 29.7324L13.1968 29.591C10.0029 26.0047 4.09525 23.4649 4.34094 18.644C4.43028 16.892 5.01099 12.271 15.6873 6.67398C24.4315 2.08822 31.4336 3.34636 32.6508 6.14485C34.3817 10.1427 28.9096 17.574 19.8193 18.644C16.3574 19.0555 14.5369 17.6445 14.0792 17.1154C13.599 16.5628 13.532 16.5393 13.3533 16.6451C13.0629 16.8097 13.2416 17.3035 13.3533 17.5975C13.6213 18.3383 14.7381 19.6552 16.6366 20.3137C18.3004 20.8899 22.3655 21.2073 27.2793 19.2084C32.7849 16.9626 37.0844 10.7306 35.8225 5.52166C34.5382 0.218634 26.1849 -1.52161 18.2894 1.42975C13.5877 3.1935 8.49528 5.94496 4.83231 9.55478C0.476954 13.8348 -0.215436 17.574 0.0749213 19.1261C1.09128 24.6643 8.33893 28.2741 11.2425 30.9433C11.0973 31.0255 10.9633 31.1078 10.8405 31.1784C9.38869 31.9308 3.86073 34.9764 2.47595 38.1981C0.91249 41.8432 2.72164 44.4654 3.92774 44.8181C7.65771 45.9117 11.477 43.948 13.543 40.7145C15.5978 37.4809 15.3522 33.2832 14.4029 31.3666L14.3693 31.296L15.5084 30.5905C16.2456 30.1319 16.9715 29.7086 17.6079 29.344C17.2507 30.367 16.9937 31.5781 16.8598 33.3419C16.7035 35.4114 17.5075 38.0922 18.5684 39.1505C19.0375 39.6089 19.5959 39.6208 19.9421 39.6208C21.1705 39.6208 21.7289 38.5507 22.3431 37.2691C23.1025 35.7053 23.7725 33.8945 23.7725 33.8945C23.7725 33.8945 22.935 38.7977 25.2243 38.7977C26.0619 38.7977 26.8995 37.6572 27.2792 37.0693V37.081C27.2792 37.081 27.3015 37.0457 27.3462 36.9634C27.393 36.8905 27.4377 36.816 27.4802 36.7401V36.7166C27.8152 36.1052 28.5634 34.7059 29.6802 32.3895C31.1207 29.4029 32.5056 25.6638 32.5056 25.6638C32.5056 25.6638 32.6396 26.5809 33.0528 28.086C33.2984 28.9797 33.8344 29.9556 34.2476 30.908C33.9126 31.4018 33.7116 31.6842 33.7116 31.6842L33.7227 31.6959C33.4548 32.0722 33.1532 32.4721 32.8406 32.8717C31.7015 34.3063 30.3391 35.9408 30.1604 36.4111C29.9482 36.9637 29.9929 37.3752 30.4061 37.7046C30.7076 37.9397 31.2437 37.9866 31.8132 37.9397C32.8406 37.8691 33.5553 37.5987 33.9127 37.434C34.4711 37.2224 35.1076 36.9049 35.7219 36.4345C36.8386 35.5645 37.5198 34.3299 37.4528 32.6837C37.4193 31.7783 37.1401 30.8847 36.7939 30.0381C36.8945 29.8852 36.9951 29.7323 37.0955 29.5678C38.8599 26.8515 40.2224 23.865 40.2224 23.865C40.2224 23.865 40.3564 24.7821 40.7696 26.2872C40.9817 27.0515 41.4062 27.8864 41.7859 28.7095C40.1331 30.1323 39.0945 31.7785 38.7371 32.8602C38.0782 34.8592 38.5919 35.7645 39.5635 35.9762C39.9989 36.0703 40.6244 35.8586 41.0934 35.647C41.6741 35.4471 42.3776 35.106 43.0255 34.6005C44.1422 33.7303 45.2143 32.5192 45.1585 30.8848C45.125 30.1323 44.9351 29.3915 44.6783 28.686C46.0854 28.0746 47.9056 27.7218 50.2174 28.0158C55.187 28.6272 56.1697 31.896 55.98 33.26C55.7901 34.6241 54.7515 35.3765 54.4052 35.6117C54.059 35.8351 53.9474 35.9175 53.9809 36.082C54.0255 36.3291 54.1819 36.3172 54.4834 36.2703C54.8966 36.1996 57.0966 35.1532 57.186 32.6371C57.32 29.403 54.4052 25.8755 49.2346 25.9107ZM10.9075 39.5151C9.26585 41.4082 6.95415 42.1255 5.97141 41.514C4.91049 40.8673 5.32358 38.0806 7.34502 36.0699C8.57345 34.847 10.1704 33.7182 11.2202 33.0245C11.4547 32.8716 11.8121 32.6483 12.2364 32.3778C12.3034 32.3309 12.3481 32.3072 12.3481 32.3072C12.4263 32.2602 12.5156 32.2014 12.605 32.1426C13.3532 35.0117 12.6385 37.528 10.9075 39.5151ZM22.9126 30.9197C22.3431 32.3895 21.137 36.164 20.4111 35.9523C19.7856 35.776 19.406 32.9187 20.2881 30.0967C20.7348 28.6738 21.6841 26.9807 22.2425 26.3221C23.1472 25.2638 24.1298 24.9111 24.3756 25.3462C24.6659 25.9107 23.27 30.0026 22.9126 30.9197ZM32.8183 35.9053C32.5726 36.0348 32.3492 36.1287 32.2487 36.0583C32.1706 36.0112 32.3491 35.8349 32.3491 35.8349C32.3491 35.8349 33.5887 34.4356 34.0801 33.7889C34.3593 33.4128 34.6943 32.9777 35.0517 32.4837V32.6248C35.0518 34.3179 33.5107 35.4467 32.8183 35.9053ZM40.4568 34.071C40.2781 33.9299 40.3006 33.4948 40.9035 32.1309C41.1381 31.59 41.6741 30.6846 42.601 29.8262C42.7127 30.179 42.7798 30.5198 42.7685 30.8374C42.7574 32.9539 41.328 33.7418 40.4568 34.071Z" fill="#CF649A"/>
</svg>
