<svg width="46" height="46" viewBox="0 0 46 46" fill="none" xmlns="http://www.w3.org/2000/svg">
<path d="M0.251831 22.5758V45.1519H22.8279H45.404V22.5758V-0.000301361H22.8279H0.251831V22.5758Z" fill="#007ACC"/>
<path d="M10.2364 22.7257L10.2221 24.5748L13.1605 24.5748H16.099V32.9244V41.2739H18.1774H20.2559V32.9244V24.5748H23.1943H26.1328V22.7615C26.1328 21.7582 26.1113 20.9196 26.0826 20.8981C26.0611 20.8695 22.4848 20.8551 18.1488 20.8623L10.2579 20.8838L10.2364 22.7257Z" fill="white"/>
<path d="M36.6853 20.8313C37.832 21.118 38.7063 21.6268 39.5091 22.4582C39.9247 22.9026 40.5411 23.7124 40.5913 23.906C40.6056 23.9633 38.6418 25.282 37.4521 26.0202C37.4091 26.0489 37.2371 25.8625 37.0436 25.5759C36.4631 24.7302 35.8539 24.3646 34.9222 24.3001C33.5533 24.207 32.6717 24.9237 32.6789 26.1206C32.6789 26.4717 32.7291 26.6796 32.8724 26.9663C33.1734 27.5898 33.7324 27.9625 35.4884 28.7222C38.7207 30.1126 40.1039 31.03 40.964 32.3344C41.9243 33.7893 42.1393 36.1114 41.4871 37.8386C40.7704 39.7164 38.993 40.9921 36.4917 41.415C35.7177 41.5511 33.8829 41.5296 33.0516 41.3791C31.2383 41.0566 29.5182 40.1607 28.4575 38.9853C28.0418 38.5267 27.232 37.3298 27.2821 37.2438C27.3036 37.2151 27.49 37.1004 27.6978 36.9786C27.8985 36.8639 28.6582 36.4267 29.3749 36.011L30.6721 35.2585L30.9445 35.6598C31.3243 36.2404 32.1557 37.0359 32.6574 37.3011C34.098 38.0608 36.0761 37.9533 37.0508 37.0789C37.4665 36.6991 37.6385 36.3049 37.6385 35.7243C37.6385 35.2012 37.574 34.9718 37.3016 34.5776C36.9504 34.0759 36.2337 33.6531 34.1983 32.7715C31.869 31.7682 30.8656 31.1446 29.9483 30.1556C29.4179 29.5822 28.9162 28.6648 28.7084 27.898C28.5364 27.2601 28.4934 25.6619 28.6295 25.0168C29.1097 22.7664 30.8083 21.1968 33.2594 20.731C34.055 20.5805 35.904 20.6378 36.6853 20.8313Z" fill="white"/>
</svg>
